HIERARCHY
ROOT Pelvis
{
	OFFSET 0.000000 0.000000 0.000000
	CHANNELS 6 Xposition Yposition Zposition Zrotation Yrotation Xrotation 
	JOINT Left_hip
	{
		OFFSET 0.068973 -0.091024 -0.007589
		CHANNELS 3 Zrotation Yrotation Xrotation
		JOINT Left_knee
		{
			OFFSET 0.036482 -0.391037 -0.003979
			CHANNELS 3 Zrotation Yrotation Xrotation
			JOINT Left_ankle
			{
				OFFSET -0.012239 -0.415469 -0.043440
				CHANNELS 3 Zrotation Yrotation Xrotation
				JOINT Left_foot
				{
					OFFSET 0.023806 -0.058558 0.118702
					CHANNELS 3 Zrotation Yrotation Xrotation
					End Site
					{
						OFFSET 0.000000 0.000000 0.000000
					}
				}
			}
		}
	}
	JOINT Right_hip
	{
		OFFSET -0.066552 -0.090468 -0.003847
		CHANNELS 3 Zrotation Yrotation Xrotation
		JOINT Right_knee
		{
			OFFSET -0.042435 -0.398340 -0.006400
			CHANNELS 3 Zrotation Yrotation Xrotation
			JOINT Right_ankle
			{
				OFFSET 0.014931 -0.415421 -0.041327
				CHANNELS 3 Zrotation Yrotation Xrotation
				JOINT Right_foot
				{
					OFFSET -0.021472 -0.049410 0.121889
					CHANNELS 3 Zrotation Yrotation Xrotation
					End Site
					{
						OFFSET 0.000000 0.000000 0.000000
					}
				}
			}
		}
	}
	JOINT Spine1
	{
		OFFSET -0.002904 0.105700 -0.022855
		CHANNELS 3 Zrotation Yrotation Xrotation
		JOINT Spine2
		{
			OFFSET 0.004179 0.132554 -0.002501
			CHANNELS 3 Zrotation Yrotation Xrotation
			JOINT Spine3
			{
				OFFSET 0.001987 0.049603 0.025988
				CHANNELS 3 Zrotation Yrotation Xrotation
				JOINT Neck
				{
					OFFSET -0.003935 0.211336 -0.045638
					CHANNELS 3 Zrotation Yrotation Xrotation
					JOINT Head
					{
						OFFSET 0.003906 0.065991 0.051018
						CHANNELS 3 Zrotation Yrotation Xrotation
						End Site
						{
							OFFSET 0.000000 0.000000 0.000000
						}
					}
				}
				JOINT Left_collar
				{
					OFFSET 0.072882 0.117751 -0.036270
					CHANNELS 3 Zrotation Yrotation Xrotation
					JOINT Left_shoulder
					{
						OFFSET 0.082118 0.032630 -0.005771
						CHANNELS 3 Zrotation Yrotation Xrotation
						JOINT Left_elbow
						{
							OFFSET 0.263305 -0.015144 -0.028095
							CHANNELS 3 Zrotation Yrotation Xrotation
							JOINT Left_wrist
							{
								OFFSET 0.250741 0.010115 -0.000759
								CHANNELS 3 Zrotation Yrotation Xrotation
								JOINT Left_palm
								{
									OFFSET 0.080683 -0.009989 -0.013613
									CHANNELS 3 Zrotation Yrotation Xrotation
									End Site
									{
										OFFSET 0.000000 0.000000 0.000000
									}
								}
							}
						}
					}
				}
				JOINT Right_collar
				{
					OFFSET -0.074811 0.116132 -0.040385
					CHANNELS 3 Zrotation Yrotation Xrotation
					JOINT Right_shoulder
					{
						OFFSET -0.085089 0.032943 -0.007484
						CHANNELS 3 Zrotation Yrotation Xrotation
						JOINT Right_elbow
						{
							OFFSET -0.254763 -0.014219 -0.020321
							CHANNELS 3 Zrotation Yrotation Xrotation
							JOINT Right_wrist
							{
								OFFSET -0.256597 0.009233 -0.005063
								CHANNELS 3 Zrotation Yrotation Xrotation
								JOINT Right_palm
								{
									OFFSET -0.080528 -0.007219 -0.010379
									CHANNELS 3 Zrotation Yrotation Xrotation
									End Site
									{
										OFFSET 0.000000 0.000000 0.000000
									}
								}
							}
						}
					}
				}
			}
		}
	}
}
MOTION
Frames: 8
Frame Time: 0.100000
0.000000 0.000000 0.000000 175.869303 13.357749 -17.457309 9.579144 7.285152 17.607432 -1.694167 3.464023 -7.196132 -4.717448 9.466595 0.783678 4.069981 7.336372 -4.162123 -2.788558 -5.285911 10.548538 4.213882 -5.554378 -3.541188 1.563350 -4.943755 -0.767133 2.151879 -5.494376 6.268714 1.733486 -1.006723 -2.974281 2.677485 -4.031017 11.571442 1.341723 -2.961439 0.795040 4.358579 -2.548952 15.113809 1.608666 -9.049645 1.439261 -24.593328 -3.087479 9.532678 -52.093949 -6.174010 11.529988 4.737361 -26.425874 12.459767 -10.645262 -11.738079 8.043899 -9.127236 -1.300173 -20.755229 23.053801 7.781453 8.206155 52.312546 2.651328 12.742057 -8.580146 20.552703 3.141639 5.548570 7.119684 -1.224371 7.822652 2.318292 -6.555033 
-0.005051 0.000661 -0.004646 175.889691 12.738882 -17.463964 9.330949 7.186091 17.478394 -1.961308 3.652678 -6.911396 -4.532633 9.585342 0.379875 4.100880 7.258353 -4.237562 -3.046213 -5.101947 10.254482 4.147999 -5.463258 -3.506508 1.816334 -4.562398 -0.396702 2.032325 -5.635182 6.102679 1.658422 -1.004753 -2.758709 2.450099 -3.900508 11.621823 1.234188 -2.885562 0.749073 4.006306 -2.358179 15.312061 1.649538 -8.919589 1.426521 -24.207116 -3.628440 9.553908 -52.094863 -7.016559 11.614033 4.806206 -29.228359 12.807565 -10.349217 -12.507706 7.797203 -8.992359 -0.996077 -20.665545 22.677291 8.085554 8.686441 52.481608 2.624468 12.582071 -8.562333 20.688539 3.157820 5.640553 7.344608 -1.717858 7.448113 2.133782 -6.523728 
-0.011441 0.001731 -0.009146 175.735772 12.443050 -17.732601 8.970704 6.827551 16.688649 -1.924831 3.706673 -4.974498 -4.251788 9.675232 -0.740649 4.154978 7.285669 -4.384567 -3.277400 -4.929344 10.251087 4.026421 -5.304004 -3.330312 2.010664 -4.386300 -0.253695 1.836701 -5.727455 5.924240 1.572979 -0.837546 -2.402763 2.370888 -3.921179 11.776205 1.211486 -2.838532 0.717529 3.783326 -2.356430 15.382751 1.860093 -8.988249 0.955233 -23.822645 -4.000769 9.532253 -52.314209 -7.440253 11.640052 4.770273 -31.433951 13.106908 -10.382870 -13.073715 7.648023 -8.859993 -0.750824 -20.438883 22.321658 8.478100 8.885734 52.429563 2.676175 12.369754 -8.607674 21.121275 3.213461 5.782423 7.646509 -1.713798 7.183049 1.951982 -6.380156 
-0.020400 0.003817 -0.012604 175.349812 12.929641 -18.610220 8.321701 6.118317 15.811665 -1.421261 2.961497 -1.764484 -3.539852 9.933686 -2.599877 4.035497 7.591045 -4.546027 -3.375312 -4.612941 9.251456 3.239439 -5.377122 0.366339 1.827565 -4.932002 -1.492900 1.669573 -5.381687 5.641337 1.346208 -0.766707 -1.843738 2.521046 -4.153575 12.509641 1.118000 -2.875870 0.501394 3.801460 -2.800564 15.503627 2.275038 -9.512207 0.235995 -23.638193 -4.585434 9.425229 -52.515956 -7.439936 11.896832 4.415789 -31.794884 12.789040 -10.879747 -12.823743 7.951427 -9.226369 -1.086272 -20.298795 22.213036 9.170682 8.628670 52.267573 2.470332 12.252190 -8.880095 21.412588 2.636926 6.150883 7.939567 -1.506079 7.577593 2.034557 -6.154599 
-0.029167 0.006800 -0.016234 175.669177 13.528878 -20.000246 7.216174 6.050939 16.566368 -1.401365 1.569397 -0.136346 -2.180916 10.440471 -4.079397 3.675020 8.154336 -4.399925 -4.152519 -3.831277 3.269978 1.054095 -6.472828 14.615518 1.777065 -5.806077 -3.410828 1.606432 -4.461260 3.922941 0.191603 -1.421687 -0.793036 2.820745 -3.720131 14.677929 0.762217 -2.641137 -0.175126 4.196752 -3.138851 15.545453 2.643996 -10.525508 -0.843082 -23.377012 -5.468284 9.270385 -52.281589 -7.148370 12.099996 4.045783 -30.724857 11.186536 -11.662280 -11.947814 9.173265 -9.749125 -1.910027 -20.420364 22.779815 10.916462 8.295892 51.735400 2.848558 12.498062 -9.002125 21.079879 1.775283 6.945768 8.133995 -0.174649 8.325429 2.264689 -6.055465 
-0.035063 0.009307 -0.017925 175.801455 15.704083 -21.442887 6.025745 5.328940 17.429082 -1.381845 -0.973656 0.771017 0.030750 10.838511 -5.031935 2.876457 9.273658 -4.433822 -6.560154 -2.264658 -7.881278 -0.669362 -7.024366 37.200066 2.721420 -5.410527 0.447714 2.606810 -3.745921 0.021608 -1.667203 -2.608068 -0.159138 3.607243 -3.236731 19.080225 0.084420 -2.500719 -1.893365 4.960071 -3.822278 15.231873 3.247006 -12.210678 -1.911979 -23.580271 -6.818419 9.109140 -50.461907 -7.619206 12.926806 3.172446 -27.082555 8.466220 -13.221256 -11.264448 11.864432 -9.816905 -2.962033 -19.858706 24.511181 12.929867 7.994694 49.578382 4.196855 13.167631 -8.697948 21.019860 0.022097 8.088592 8.467437 1.860450 9.586700 2.736722 -6.049112 
-0.037608 0.006048 -0.009015 174.631681 19.594248 -21.598412 6.667617 4.850868 16.503086 -1.163299 -3.672832 1.720661 0.419078 10.003993 -4.816471 2.323402 10.041001 -5.089956 -8.774000 -1.837893 -13.864797 -0.142744 -5.650219 43.717400 3.149789 -4.767244 1.545504 2.735827 -3.304828 -1.054522 -1.441351 -2.819171 -0.152507 4.129802 -3.114921 20.095528 -0.494410 -1.986260 -3.275781 5.050646 -6.180811 14.783090 3.796822 -14.147369 -1.735346 -23.742830 -7.990477 8.395001 -49.376798 -8.280161 14.777722 2.622197 -19.651870 7.007604 -13.318977 -9.462872 13.919718 -10.317911 -4.272203 -19.024647 24.748018 14.547494 7.094479 47.823964 6.212109 13.766863 -7.792573 19.009681 -1.426013 8.641889 7.648662 2.259921 10.956414 3.730877 -6.436559 
-0.034129 0.004085 0.009550 173.777425 24.516239 -20.873478 8.129360 4.311939 16.096846 -1.369229 -6.173365 0.597763 -0.977065 7.779362 -4.671826 2.220558 10.377444 -5.094278 -11.091624 -1.515907 -11.594374 0.138473 -1.632641 29.130643 4.464627 -3.540809 1.612094 0.458206 -3.421844 -0.077470 -0.404146 -1.878344 0.311651 4.190491 -2.781723 18.426203 -0.311558 -1.015034 -3.234248 4.727245 -9.866948 12.397553 5.528688 -17.032029 -4.033750 -23.143458 -8.207957 7.936959 -48.939305 -7.899580 14.306248 3.436460 -18.950919 6.115882 -12.296227 -9.131565 13.136988 -9.407250 -3.736935 -17.353269 22.643988 16.581101 5.893780 44.271013 9.596445 12.450967 -7.649475 19.692651 -1.473759 8.993406 6.697944 4.382252 9.780807 3.661002 -6.793218 
